ModelForces
version=1
nRows=4
nColumns=94
inDegrees=yes

This file contains the forces exerted on a model during a simulation.

A force is a generalized force, meaning that it can be either a force (N) or a torque (Nm).

Units are S.I. units (second, meters, Newtons, ...)
Angles are in degrees.

endheader 
time	addbrev_l	addlong_l	addmagDist_l	addmagIsch_l	addmagMid_l	addmagProx_l	bflh_l	bfsh_l	edl_l	ehl_l	fdl_l	fhl_l	gaslat_l	gasmed_l	glmax1_l	glmax2_l	glmax3_l	glmed1_l	glmed2_l	glmed3_l	glmin1_l	glmin2_l	glmin3_l	grac_l	iliacus_l	perbrev_l	perlong_l	piri_l	psoas_l	recfem_l	sart_l	semimem_l	semiten_l	soleus_l	tfl_l	tibant_l	tibpost_l	vasint_l	vaslat_l	vasmed_l	addbrev_r	addlong_r	addmagDist_r	addmagIsch_r	addmagMid_r	addmagProx_r	bflh_r	bfsh_r	edl_r	ehl_r	fdl_r	fhl_r	gaslat_r	gasmed_r	glmax1_r	glmax2_r	glmax3_r	glmed1_r	glmed2_r	glmed3_r	glmin1_r	glmin2_r	glmin3_r	grac_r	iliacus_r	perbrev_r	perlong_r	piri_r	psoas_r	recfem_r	sart_r	semimem_r	semiten_r	soleus_r	tfl_r	tibant_r	tibpost_r	vasint_r	vaslat_r	vasmed_r	lumbar_extension	lumbar_bending	lumbar_rotation	arm_flex_l	arm_add_l	arm_rot_l	arm_flex_r	arm_add_r	arm_rot_r	elbow_flex_l	elbow_flex_r	pro_sup_l	pro_sup_r	
          6.82000000	          7.29639307	         21.97766477	          3.29961681	          2.76856400	          2.18147721	          2.95863784	         11.42948726	         35.78790949	         29.95599446	          9.68977287	          4.05691769	          8.13227191	          8.59000947	         92.74145263	         42.94159655	         38.29401450	          5.06999724	         52.80120760	         59.27832589	         79.53179072	          7.16953254	         10.29104987	         14.21401077	          7.56926995	         37.59990655	         17.08132398	         39.88132500	         78.89990158	        153.44332394	         23.65272675	         13.12610936	         24.03698024	          8.36867236	         27.23519828	         88.06264241	         91.49548101	         11.86340329	          9.18174473	         27.49955615	         14.40395459	         52.85271218	         98.12330902	         14.80771325	          5.25508282	         45.90159925	         51.38736257	          2.60029500	         51.25705287	         88.13770224	         14.38864263	          6.33065375	         15.81917474	         83.16208474	         87.44097183	          7.61532815	         11.36791386	          5.63953414	         17.41398066	         19.34589157	         52.24530298	          6.73788840	        101.56134538	         59.90593599	         27.93100071	         73.62428174	         42.49352740	        109.07738153	          0.00091550	        233.39541550	        940.09341299	         49.25375073	          4.20422446	         29.64536494	        160.22366152	        180.31227541	        333.03321832	         27.55134910	         19.15027207	         56.48666308	         28.18832313	        -39.66605149	         -4.63691211	         -9.55459322	        -17.24801675	         48.81996186	          2.62893489	        -17.18604372	         10.97102995	          7.06912601	        -14.31351602	         -5.32242077	         -0.28672192	          0.28293034	
          6.83000000	          6.30341935	         19.00982996	          3.34777527	          3.13065694	          1.90921204	          2.59687027	         10.58095479	         34.96625222	         39.22021718	          9.10376150	          2.93212316	          6.05933329	         55.53192068	         60.64848881	         35.11442349	         31.72312960	          4.37298278	        146.11831705	         48.15948717	         63.51623352	         22.15984703	         30.12940765	         15.68296171	          6.40738289	         12.08472565	         18.00150347	         37.37270890	         19.97201703	         75.04687464	         71.27193432	         30.63343772	         22.53543042	          7.48317604	          6.92786291	        116.56091465	         84.96833226	          9.05105112	          8.93978506	         26.92499161	         14.05574633	         44.25905825	         83.16096344	         12.80867055	          5.66096521	         38.08487375	         40.83911875	          3.45532288	         46.12677659	         93.70573483	         13.20250749	          4.95795546	          9.94622743	         88.63992601	        131.44705973	          8.26720828	         12.52132282	          6.34461550	         17.74837693	         16.91205878	         45.55415423	          6.11009122	         86.90189290	         54.74117672	         25.91475812	         98.35924287	         43.56895887	        122.71909176	          0.00038328	        192.04845951	        835.99353134	         41.56791439	          5.55859327	         27.81697945	        151.96460185	        188.68907107	        355.21710341	         12.50607166	         16.89503105	         36.41991076	         25.58281105	        -44.09959937	        -19.91423827	        -16.56825476	        -31.08387393	         23.63764302	        -35.20965141	        -37.21065606	          4.06078133	         42.69784159	        -28.58369345	          5.21772519	         -2.50358196	          0.99711617	
          6.84000000	          8.21391790	         17.65469150	          3.73447973	          3.67047039	          2.10520932	          2.88462393	         10.96083082	         29.67653240	         34.53821901	          8.33829039	          3.11132020	          6.43218354	          2.43957706	         73.31664697	         30.55102125	         28.11346106	          4.62783095	        111.53556449	         42.64974173	         56.92218066	         18.40610655	         23.55376290	         11.31747758	          5.37781276	        327.13748779	         16.14577591	         39.17794688	         52.40073571	        384.97314563	        310.21324245	         24.23555261	         22.93168401	          6.88728487	         32.27875611	        140.88255774	         78.06240749	          8.33041756	         10.30862445	         29.83481892	         15.68885293	         36.44369030	         69.69806933	         11.42381947	          6.23406695	         32.12719507	         32.01082529	          4.78984024	         40.65979571	         97.58086139	          4.73141143	          0.02636982	          7.99760778	         83.99086525	        118.45505804	          9.22148930	         14.05377341	          7.42148605	         18.65730439	         15.13208018	         40.85092283	         56.56150298	         74.37858539	         50.28144831	         23.95812144	         69.20140814	         41.58363889	        116.07873621	          0.35517775	        152.86390008	        689.65645755	         34.49592312	          7.34211622	         25.90592791	        125.38245622	        203.97504768	        314.98976580	         16.34795836	         19.21218658	        227.58249619	         22.65059886	        -69.37601203	          7.71943420	          2.04122137	         -0.38830785	        -20.18382264	         13.06339626	        -24.21214972	          3.44013424	         -6.60628805	         15.46022426	         -1.66668891	          1.00111339	         -0.17612612	
          6.85000000	          7.19712234	         15.04830754	          4.13661894	          4.31491423	          2.16906140	          2.61357837	         11.37335006	         20.00129684	         35.37658494	          7.00684842	          2.42380859	          4.58761276	         87.61351216	          0.77447998	         25.18214958	         23.87843833	          5.41521989	        167.70261911	         18.89641925	         32.95114293	         41.29454570	         37.85529307	         23.04520110	          4.59793547	        427.76614474	         14.75472800	         33.33272291	          0.00627161	        626.39696468	        407.86572225	         33.43332373	         22.29896234	          6.37793235	          3.02085864	        161.09766316	         63.33954690	          6.18758891	          8.61241999	         25.22125715	         13.36415175	         27.15748815	         51.02255747	          9.60434684	          6.46752701	         24.73048569	         23.99236757	          6.44280952	         35.90081727	        103.56776051	         32.17354029	         18.50614245	          6.54508420	         74.82154527	        106.89039766	         10.07863276	         15.33286939	          8.22978957	         10.98771015	         14.03221798	         38.27514563	        117.54298423	         63.72506477	         49.36032095	         21.26096873	         88.75882028	         37.10084794	        104.11998349	          2.57229517	        122.25573077	        477.12024458	         29.07445116	          9.30333655	         23.49162463	        103.58345696	        212.45065343	        238.40023803	         12.48462137	         55.82248993	        317.83460489	        138.77543133	        -82.37484408	         12.09195924	         11.86481058	         -0.69550720	        -52.21304865	        -28.54045232	        -17.29419910	         -4.60632309	        -29.13653950	          6.55143362	         -2.76019467	         -1.49532469	         -0.69163133	
